HIERARCHY
ROOT pelvis
{
  OFFSET 0 100 0
  CHANNELS 6 Xposition Yposition Zposition Zrotation Xrotation Yrotation
  JOINT pelvis_right_femur
  {
    OFFSET -10.78128 -3.44521 -0.5502486
    CHANNELS 3 Zrotation Xrotation Yrotation
    JOINT right_femur_tibia
    {
      OFFSET -0.8047443 -44.0398 -0.1307829
      CHANNELS 3 Zrotation Xrotation Yrotation
      JOINT right_tibia_foot
      {
        OFFSET 3.006224 -47.83518 -5
        CHANNELS 3 Zrotation Xrotation Yrotation
        End Site
        {
          OFFSET 0 -5 15
        }
      }
    }
  }
  JOINT pelvis_left_femur
  {
    OFFSET 10.78128 -3.44521 -0.5502486
    CHANNELS 3 Zrotation Xrotation Yrotation
    JOINT left_femur_tibia
    {
      OFFSET 0.8047443 -44.0398 -0.1307829
      CHANNELS 3 Zrotation Xrotation Yrotation
      JOINT left_tibia_foot
      {
        OFFSET -4.370144 -48.10324 -4.275266
        CHANNELS 3 Zrotation Xrotation Yrotation
        End Site
        {
          OFFSET 0 -5 15
        }
      }
    }
  }
  JOINT pelvis_spine1
  {
    OFFSET 0 6.468898 -3.129235
    CHANNELS 3 Zrotation Xrotation Yrotation
    JOINT spine1
    {
      OFFSET 0 23.15396 4.99043
      CHANNELS 3 Zrotation Xrotation Yrotation
      JOINT spine2
      {
        OFFSET 0 20.79997 -5.064912
        CHANNELS 3 Zrotation Xrotation Yrotation
        JOINT neck
        {
          OFFSET 0 14.38658 9.616178
          CHANNELS 3 Zrotation Xrotation Yrotation
          End Site
          {
            OFFSET 0 20 0
          }
        }
      }
      JOINT right_manubrium
      {
        OFFSET -5.722621 16.35077 3.967754
        CHANNELS 3 Zrotation Xrotation Yrotation
        JOINT right_clavicle
        {
          OFFSET -13.16364 1.694482 -4.693211
          CHANNELS 3 Zrotation Xrotation Yrotation
          JOINT right_humerus
          {
            OFFSET -28.5034 -0.3100689 -2.792744
            CHANNELS 3 Zrotation Xrotation Yrotation
            JOINT right_radius
            {
              OFFSET -25.15693 0.02248979 -1.271978
              CHANNELS 3 Zrotation Xrotation Yrotation
              End Site
              {
                OFFSET -15 0 0
              }
            }
          }
        }
      }
      JOINT left_manubrium
      {
        OFFSET 5.722621 16.35077 3.967754
        CHANNELS 3 Zrotation Xrotation Yrotation
        JOINT left_clavicle
        {
          OFFSET 13.16364 1.694482 -4.693211
          CHANNELS 3 Zrotation Xrotation Yrotation
          JOINT left_humerus
          {
            OFFSET 29.39168 -1.063119 -2.237045
            CHANNELS 3 Zrotation Xrotation Yrotation
            JOINT left_radius
            {
              OFFSET 24.59957 -0.9528479 0.9047498
              CHANNELS 3 Zrotation Xrotation Yrotation
              End Site
              {
                OFFSET 15 -0 -0
              }
            }
          }
        }
      }
    }
  }
}
MOTION
Frames: 8
Frame Time: 0.0416666666667
34.40642 104.1429 250.3733 2.319397 -6.888938 3.49788 1.085786 11.70589 6.288082 1.001295e-06 38.27321 -8.039151e-07 5.315515 -10.80528 -3.254336 -4.195998 -13.43165 -9.944986 2.549731e-07 20.20656 3.294263e-06 -6.440514 -10.71126 18.95715 -2.070454 -0.9118604 7.574527 -0.9566058 8.856437 -2.970723 2.110246 22.06862 6.1653 2.170499 -17.57904 8.256475 1.581047 -20.32058 10.79367 82.12197 22.46993 -9.701965 1.897916e-07 -1.413477e-08 24.17855 -24.70621 12.22995 12.97968 3.980467 -13.57928 -2.906813 -94.63139 25.59812 26.19503 1.205099e-07 -6.338009e-07 -10.76476 -5.44097 6.154061 19.19038
35.79457 104.7798 256.5119 2.556626 -7.450392 3.883421 0.5847675 9.447016 6.27909 6.691654e-07 45.04538 -5.846939e-07 4.868529 -9.330512 -3.942055 -5.077685 -10.16899 -10.74348 7.897032e-08 21.2769 2.242117e-06 -5.940481 -11.20664 18.76405 -2.371648 -0.9666825 7.030772 -1.027911 8.942402 -3.242104 2.082932 22.42011 6.269936 2.116924 -17.36384 8.420677 1.874936 -19.54733 10.64842 82.80316 22.77834 -10.5419 1.616861e-07 -3.173741e-09 22.76838 -24.1097 12.03428 12.38085 3.670975 -13.73789 -3.164627 -93.42925 26.24756 24.5437 -2.077118e-08 -4.580135e-07 -10.98109 -5.100933 6.502323 18.81664
37.12177 105.6647 262.2927 2.742872 -8.098435 4.527096 0.2034081 5.887579 6.077518 2.39507e-07 50.91891 -2.599029e-07 4.255295 -8.589875 -4.915323 -5.680247 -6.375281 -11.32045 -1.510462e-07 21.33416 1.304097e-06 -5.512031 -12.08771 18.28026 -2.630751 -0.755779 6.267653 -1.003873 8.995925 -3.70484 2.014398 22.83855 6.354112 1.938405 -17.04595 8.619718 2.104513 -18.75117 10.50407 83.87802 23.17861 -11.58042 1.244587e-07 4.433115e-09 21.30667 -23.41674 12.01055 11.84034 3.383529 -14.11079 -3.532967 -92.00834 26.9891 22.34653 -1.664719e-07 -2.584272e-07 -11.60967 -4.734291 6.833322 18.41103
38.3597 106.6528 267.6747 2.764285 -8.572054 5.362872 0.107509 1.184451 5.752164 -9.908743e-07 54.53935 8.442477e-07 3.414483 -8.554363 -5.976712 -5.932007 -1.978663 -11.75871 -5.715103e-07 20.7613 -9.563687e-07 -5.296163 -13.04603 17.47551 -2.716013 -0.4129259 5.316378 -0.8119116 8.993629 -4.347129 1.907714 23.17016 6.41162 1.687474 -16.76988 8.812809 2.309009 -17.93664 10.3659 85.07279 23.67042 -12.87001 2.652764e-08 1.141409e-08 19.72268 -22.38911 12.12074 11.24404 3.179546 -14.68923 -3.917727 -90.35818 27.67256 19.78628 -3.908106e-07 2.204086e-07 -12.64192 -4.249997 7.213132 17.86793
39.51474 107.499 272.6936 2.744212 -8.817234 6.334541 0.1683785 -3.776204 5.252411 -1.766818e-06 54.98277 1.558788e-06 2.558257 -8.709719 -6.91484 -5.92696 1.989767 -12.01725 -8.977527e-07 19.19596 -2.242231e-06 -5.160215 -14.2937 16.71164 -2.73628 0.05298673 4.397433 -0.5315114 8.940461 -4.975255 1.815781 23.37495 6.459097 1.47962 -16.60157 8.968966 2.360603 -17.25505 10.25977 86.13243 24.06349 -14.07737 -3.799543e-08 1.081609e-08 18.28521 -21.47704 12.24421 10.79984 3.211005 -15.38351 -4.284396 -88.77175 28.08199 17.22056 -5.158667e-07 5.279917e-07 -13.90604 -3.729361 7.558863 17.22184
40.59346 108.0053 277.5148 2.718861 -8.792158 7.359306 0.3045334 -8.607868 4.611889 -1.622198e-06 52.03856 1.432531e-06 1.890856 -8.955354 -7.723595 -5.753232 5.5937 -12.08242 -9.743481e-07 17.01906 -2.163683e-06 -5.193313 -15.7699 16.04369 -2.733494 0.5106351 3.574039 -0.1839574 8.771004 -5.550437 1.782793 23.46795 6.471906 1.333638 -16.51963 9.082523 2.227684 -16.62552 10.13453 87.10062 24.29099 -15.25967 -4.605481e-08 -1.689809e-09 16.91433 -20.8091 12.38728 10.49688 3.526593 -16.14776 -4.558871 -87.29617 28.21972 14.5718 -5.060996e-07 5.558176e-07 -15.4878 -3.234153 7.830291 16.51822
41.58611 108.0527 282.2558 2.704949 -8.561818 8.34907 0.4758903 -13.07399 3.929061 -1.037732e-06 46.47274 9.150525e-07 1.369574 -9.269374 -8.381258 -5.520404 8.882091 -12.07737 -8.465921e-07 14.87351 -1.346447e-06 -5.278331 -17.32951 15.61367 -2.739324 0.8963109 2.865432 0.201792 8.498046 -6.042839 1.814588 23.49045 6.443911 1.263522 -16.50687 9.145313 1.980504 -15.97437 9.982331 87.85982 24.41103 -16.41184 -2.303184e-08 -2.341484e-08 15.46254 -20.24041 12.459 10.18852 4.070956 -16.93699 -4.716472 -85.85415 28.16012 11.79998 -4.244484e-07 4.229474e-07 -17.28902 -2.715501 8.118442 15.6944
42.51988 107.6472 287.1954 2.725969 -8.109273 9.244181 0.5699716 -16.57571 3.138791 2.027588e-07 39.20546 -1.73255e-07 1.066117 -9.629046 -8.868727 -5.321492 11.80794 -11.89912 -1.975725e-07 13.30115 1.102793e-06 -5.540475 -18.75718 15.25565 -2.796934 1.047994 2.334689 0.5718216 8.067391 -6.438368 1.925208 23.53904 6.345073 1.234196 -16.54823 9.168904 1.580676 -15.28059 9.733504 88.72559 24.41079 -17.58111 7.75047e-08 -5.838867e-08 13.93978 -19.93547 12.48504 9.926709 4.765198 -17.6934 -4.684885 -84.68457 27.98402 9.040836 -2.115229e-07 -9.328868e-08 -19.30677 -2.236548 8.403812 14.85403
